STARTFONT 2.1
COMMENT
COMMENT Converted from OpenType font "Q:\font stuff\winfont\Thong.ttf" by "otf2bdf 3.0".
COMMENT
FONT -FreeType-Thong-Medium-R-Normal--30-300-72-72-P-99-ISO10646-1
SIZE 30 72 72
FONTBOUNDINGBOX 34 30 -2 -6
STARTPROPERTIES 19
FOUNDRY "FreeType"
FAMILY_NAME "Thong"
WEIGHT_NAME "Medium"
SLANT "R"
SETWIDTH_NAME "Normal"
ADD_STYLE_NAME ""
PIXEL_SIZE 30
POINT_SIZE 300
RESOLUTION_X 72
RESOLUTION_Y 72
SPACING "P"
AVERAGE_WIDTH 99
CHARSET_REGISTRY "ISO10646"
CHARSET_ENCODING "1"
FONT_ASCENT 24
FONT_DESCENT 5
COPYRIGHT "© Graham Meade. All rights reserved. gem@c031.aone.net.au"
_OTF_FONTFILE "Q:\font stuff\winfont\Thong.ttf"
_OTF_PSNAME "Thong"
ENDPROPERTIES
CHARS 207
STARTCHAR 0020
ENCODING 32
SWIDTH 366 0
DWIDTH 11 0
BBX 0 0 0 0
BITMAP
ENDCHAR
STARTCHAR 0021
ENCODING 33
SWIDTH 66 0
DWIDTH 2 0
BBX 1 19 1 0
BITMAP
80
80
80
80
80
80
80
80
80
80
80
80
80
80
80
00
00
00
80
ENDCHAR
STARTCHAR 0022
ENCODING 34
SWIDTH 133 0
DWIDTH 4 0
BBX 3 4 1 15
BITMAP
A0
A0
A0
A0
ENDCHAR
STARTCHAR 0023
ENCODING 35
SWIDTH 500 0
DWIDTH 15 0
BBX 13 14 1 3
BITMAP
20C0
1080
1080
0888
8890
7FE0
0880
0880
7FE0
8890
8880
1080
1080
20C0
ENDCHAR
STARTCHAR 0024
ENCODING 36
SWIDTH 433 0
DWIDTH 13 0
BBX 11 25 1 -3
BITMAP
3F80
1200
1200
3F00
4A80
8A40
8A40
8A00
8A00
8A00
CA00
3E00
0B80
0A40
0A40
0A40
0A20
8A20
8A40
8A40
6B80
3F00
1200
1200
3F80
ENDCHAR
STARTCHAR 0025
ENCODING 37
SWIDTH 800 0
DWIDTH 24 0
BBX 23 19 1 0
BITMAP
3E0180
610100
808200
808200
804400
808C00
808800
419800
3E1000
0021F0
002318
004404
00C404
008402
010404
010404
020404
060318
0401F0
ENDCHAR
STARTCHAR 0026
ENCODING 38
SWIDTH 433 0
DWIDTH 13 0
BBX 11 20 1 -1
BITMAP
1E00
2100
4080
4080
4040
4080
4080
6100
3E00
2000
4000
8000
8000
8000
8020
8020
8060
40C0
3F20
0020
ENDCHAR
STARTCHAR 0027
ENCODING 39
SWIDTH 66 0
DWIDTH 2 0
BBX 1 4 1 15
BITMAP
80
80
80
80
ENDCHAR
STARTCHAR 0028
ENCODING 40
SWIDTH 200 0
DWIDTH 6 0
BBX 4 23 1 -2
BITMAP
30
40
80
80
80
80
80
80
80
80
80
80
80
80
80
80
80
80
80
80
80
40
30
ENDCHAR
STARTCHAR 0029
ENCODING 41
SWIDTH 200 0
DWIDTH 6 0
BBX 4 23 1 -2
BITMAP
C0
60
10
10
10
10
10
10
10
10
10
10
10
10
10
10
10
10
10
10
10
20
C0
ENDCHAR
STARTCHAR 002A
ENCODING 42
SWIDTH 300 0
DWIDTH 9 0
BBX 8 8 1 12
BITMAP
44
68
28
FF
30
68
48
04
ENDCHAR
STARTCHAR 002B
ENCODING 43
SWIDTH 466 0
DWIDTH 14 0
BBX 13 13 1 3
BITMAP
0980
0600
0600
0200
8218
8210
7FF0
8210
8218
0200
0600
0600
0980
ENDCHAR
STARTCHAR 002C
ENCODING 44
SWIDTH 133 0
DWIDTH 4 0
BBX 2 4 1 -2
BITMAP
80
C0
C0
80
ENDCHAR
STARTCHAR 002D
ENCODING 45
SWIDTH 466 0
DWIDTH 14 0
BBX 12 5 1 7
BITMAP
8010
8010
7FE0
8010
8010
ENDCHAR
STARTCHAR 002E
ENCODING 46
SWIDTH 100 0
DWIDTH 3 0
BBX 1 2 2 0
BITMAP
80
80
ENDCHAR
STARTCHAR 002F
ENCODING 47
SWIDTH 466 0
DWIDTH 14 0
BBX 12 19 1 1
BITMAP
0030
0020
0040
0040
0080
0180
0100
0300
0200
0400
0C00
0800
1800
1000
2000
2000
4000
C000
8000
ENDCHAR
STARTCHAR 0030
ENCODING 48
SWIDTH 400 0
DWIDTH 12 0
BBX 10 19 1 0
BITMAP
3E00
4100
8080
8080
8040
8040
80C0
80C0
8140
BE40
C040
8040
8040
8040
8040
8080
8080
4100
3E00
ENDCHAR
STARTCHAR 0031
ENCODING 49
SWIDTH 100 0
DWIDTH 3 0
BBX 3 19 0 0
BITMAP
40
40
40
40
40
40
40
40
40
40
40
40
40
40
40
40
40
40
E0
ENDCHAR
STARTCHAR 0032
ENCODING 50
SWIDTH 400 0
DWIDTH 12 0
BBX 10 19 1 0
BITMAP
3E00
4100
8080
8080
8040
0040
0040
0080
0080
0100
3E00
4000
8000
8000
8000
8000
8000
8000
FFC0
ENDCHAR
STARTCHAR 0033
ENCODING 51
SWIDTH 400 0
DWIDTH 12 0
BBX 10 19 1 0
BITMAP
FE00
0100
0080
0080
0040
0080
0080
0180
1E00
0200
0180
0080
0080
0040
8080
8080
8080
4100
3E00
ENDCHAR
STARTCHAR 0034
ENCODING 52
SWIDTH 500 0
DWIDTH 15 0
BBX 13 19 1 0
BITMAP
0400
0800
0800
0800
1000
1000
2000
2000
2100
4100
4100
FD00
C718
81E0
0100
0100
0100
0100
0100
ENDCHAR
STARTCHAR 0035
ENCODING 53
SWIDTH 400 0
DWIDTH 12 0
BBX 10 19 1 0
BITMAP
FFC0
8000
8000
8000
8000
8000
FE00
0100
0080
0080
0040
0040
0040
0040
8080
8080
8080
4100
3E00
ENDCHAR
STARTCHAR 0036
ENCODING 54
SWIDTH 433 0
DWIDTH 13 0
BBX 11 19 1 0
BITMAP
3F00
4080
8040
8040
8020
8000
8000
8000
FF00
8080
8040
8040
8020
8020
8020
8040
8040
6080
3F00
ENDCHAR
STARTCHAR 0037
ENCODING 55
SWIDTH 500 0
DWIDTH 15 0
BBX 13 19 1 1
BITMAP
7818
8630
01D0
0030
0020
0020
0040
0040
0080
0080
0180
0100
0100
0200
0200
0600
0400
0400
0800
ENDCHAR
STARTCHAR 0038
ENCODING 56
SWIDTH 400 0
DWIDTH 12 0
BBX 11 19 1 0
BITMAP
1E00
2100
4080
4080
4040
40C0
4080
6180
3F00
6100
8080
8040
8040
8020
8040
8040
8040
6180
3F00
ENDCHAR
STARTCHAR 0039
ENCODING 57
SWIDTH 433 0
DWIDTH 13 0
BBX 11 19 1 0
BITMAP
3F00
4080
8040
8040
8020
8020
8020
8020
8020
4020
3FE0
0060
0060
0020
8020
8040
8040
4080
3F00
ENDCHAR
STARTCHAR 003A
ENCODING 58
SWIDTH 100 0
DWIDTH 3 0
BBX 1 10 1 0
BITMAP
80
00
00
00
00
00
00
00
00
80
ENDCHAR
STARTCHAR 003B
ENCODING 59
SWIDTH 133 0
DWIDTH 4 0
BBX 2 12 1 -2
BITMAP
80
00
00
00
00
00
00
00
80
C0
C0
80
ENDCHAR
STARTCHAR 003C
ENCODING 60
SWIDTH 433 0
DWIDTH 13 0
BBX 11 9 1 5
BITMAP
0020
01C0
0E00
3800
E000
3800
0600
01C0
0020
ENDCHAR
STARTCHAR 003D
ENCODING 61
SWIDTH 466 0
DWIDTH 14 0
BBX 12 9 1 5
BITMAP
8010
8030
7FE0
0000
0000
0000
7FE0
8030
8010
ENDCHAR
STARTCHAR 003E
ENCODING 62
SWIDTH 433 0
DWIDTH 13 0
BBX 10 9 1 5
BITMAP
8000
6000
1C00
0380
00C0
0700
1C00
6000
8000
ENDCHAR
STARTCHAR 003F
ENCODING 63
SWIDTH 433 0
DWIDTH 13 0
BBX 11 19 1 0
BITMAP
3F00
4080
8040
8040
0020
0040
0040
0080
0F00
1000
1000
1000
1000
1000
1000
0000
0000
0000
1000
ENDCHAR
STARTCHAR 0040
ENCODING 64
SWIDTH 666 0
DWIDTH 20 0
BBX 18 20 1 0
BITMAP
008000
01C000
012000
021000
040800
09F400
121200
200900
401980
C1E8C0
830840
420880
221100
123200
0BE400
040800
021000
012000
01C000
008000
ENDCHAR
STARTCHAR 0041
ENCODING 65
SWIDTH 433 0
DWIDTH 13 0
BBX 11 19 1 0
BITMAP
3F00
4080
8040
8040
8020
8020
8020
8020
BF20
E0A0
8060
8060
8020
8020
8020
8020
8020
8020
8020
ENDCHAR
STARTCHAR 0042
ENCODING 66
SWIDTH 433 0
DWIDTH 13 0
BBX 11 19 1 0
BITMAP
3F00
4080
8040
8040
8020
8040
8040
80C0
BF00
E100
8080
8040
8040
8020
8040
8040
8040
8080
FF00
ENDCHAR
STARTCHAR 0043
ENCODING 67
SWIDTH 433 0
DWIDTH 13 0
BBX 11 19 1 0
BITMAP
3F00
60C0
8040
8020
8020
8000
8000
8000
8000
8000
8000
8000
8000
8000
8020
8060
8040
4080
3F00
ENDCHAR
STARTCHAR 0044
ENCODING 68
SWIDTH 433 0
DWIDTH 13 0
BBX 11 19 1 0
BITMAP
FF00
8080
8040
8040
8020
8020
8020
8020
8020
8020
8020
8020
8020
8020
8020
8040
8040
8080
FF00
ENDCHAR
STARTCHAR 0045
ENCODING 69
SWIDTH 366 0
DWIDTH 11 0
BBX 10 19 1 0
BITMAP
3FC0
6000
8000
8000
8000
8000
8000
8000
BE00
E000
8000
8000
8000
8000
8000
8000
8000
8000
FFC0
ENDCHAR
STARTCHAR 0046
ENCODING 70
SWIDTH 333 0
DWIDTH 10 0
BBX 9 19 1 0
BITMAP
3F80
6000
8000
8000
8000
8000
8000
8000
BE00
E000
8000
8000
8000
8000
8000
8000
8000
8000
8000
ENDCHAR
STARTCHAR 0047
ENCODING 71
SWIDTH 433 0
DWIDTH 13 0
BBX 11 19 1 0
BITMAP
3F00
4080
8040
8040
8020
8000
8000
8000
8000
9F00
8080
8040
8040
8020
8060
8060
8060
40A0
3F20
ENDCHAR
STARTCHAR 0048
ENCODING 72
SWIDTH 433 0
DWIDTH 13 0
BBX 11 19 1 0
BITMAP
8020
8020
8020
8020
8020
8020
8020
BF20
E0A0
8060
8060
8020
8020
8020
8020
8020
8020
8020
8020
ENDCHAR
STARTCHAR 0049
ENCODING 73
SWIDTH 100 0
DWIDTH 3 0
BBX 3 19 0 0
BITMAP
E0
40
40
40
40
40
40
40
40
40
40
40
40
40
40
40
40
40
E0
ENDCHAR
STARTCHAR 004A
ENCODING 74
SWIDTH 433 0
DWIDTH 13 0
BBX 11 19 1 0
BITMAP
0020
0020
0020
0020
0020
0020
0020
0020
0020
0020
0020
0020
0020
0020
8020
8040
8040
4080
3F00
ENDCHAR
STARTCHAR 004B
ENCODING 75
SWIDTH 433 0
DWIDTH 13 0
BBX 11 19 1 0
BITMAP
8020
8020
8020
8020
8020
8040
8040
80C0
BF00
E100
8080
8040
8040
8020
8020
8020
8020
8020
8020
ENDCHAR
STARTCHAR 004C
ENCODING 76
SWIDTH 366 0
DWIDTH 11 0
BBX 10 19 1 0
BITMAP
8000
8000
8000
8000
8000
8000
8000
8000
8000
8000
8000
8000
8000
8000
8000
8000
8000
8000
FFC0
ENDCHAR
STARTCHAR 004D
ENCODING 77
SWIDTH 633 0
DWIDTH 19 0
BBX 17 19 1 0
BITMAP
3E3C00
434300
818100
818100
808080
808080
808080
808080
808080
808080
808080
808080
808080
808080
808080
808080
808080
808080
808080
ENDCHAR
STARTCHAR 004E
ENCODING 78
SWIDTH 433 0
DWIDTH 13 0
BBX 11 19 1 1
BITMAP
8020
C020
C020
E020
A020
9020
9020
8820
8820
8420
8420
8220
8220
8120
8120
80A0
80A0
8060
8060
ENDCHAR
STARTCHAR 004F
ENCODING 79
SWIDTH 433 0
DWIDTH 13 0
BBX 11 19 1 0
BITMAP
3F00
4080
8040
8040
8020
8020
8020
8020
8020
8020
8020
8020
8020
8020
8020
8040
8040
4080
3F00
ENDCHAR
STARTCHAR 0050
ENCODING 80
SWIDTH 433 0
DWIDTH 13 0
BBX 11 19 1 0
BITMAP
FF00
8080
8040
8040
8020
8020
8020
8040
8040
C080
BF00
8000
8000
8000
8000
8000
8000
8000
8000
ENDCHAR
STARTCHAR 0051
ENCODING 81
SWIDTH 433 0
DWIDTH 13 0
BBX 11 23 1 -4
BITMAP
3F00
6080
8040
8040
8020
8020
8020
8020
8020
8020
8820
8820
8820
8820
8820
8640
8340
4080
3F80
0080
0040
0080
0080
ENDCHAR
STARTCHAR 0052
ENCODING 82
SWIDTH 433 0
DWIDTH 13 0
BBX 11 19 1 0
BITMAP
FF00
8080
8040
8040
8020
8040
8040
80C0
BF80
E100
80C0
8040
8040
8020
8020
8020
8020
8020
8020
ENDCHAR
STARTCHAR 0053
ENCODING 83
SWIDTH 433 0
DWIDTH 13 0
BBX 11 19 1 0
BITMAP
3F00
4080
8040
8040
8000
8000
8000
4000
3F00
0080
0040
0040
0020
0020
8040
8040
8040
4080
3F00
ENDCHAR
STARTCHAR 0054
ENCODING 84
SWIDTH 500 0
DWIDTH 15 0
BBX 14 19 1 1
BITMAP
3E04
C308
81F0
0100
0100
0100
0100
0100
0100
0100
0100
0100
0100
0100
0100
0100
0100
0100
0100
ENDCHAR
STARTCHAR 0055
ENCODING 85
SWIDTH 433 0
DWIDTH 13 0
BBX 11 19 1 0
BITMAP
8020
8020
8020
8020
8020
8020
8020
8020
8020
8020
8020
8020
8020
8020
8020
8040
8040
4080
3F00
ENDCHAR
STARTCHAR 0056
ENCODING 86
SWIDTH 466 0
DWIDTH 14 0
BBX 12 19 1 1
BITMAP
8010
8010
8010
8010
8020
8020
4020
4020
4020
4020
4060
4040
4040
2040
2040
2040
2080
1180
0F00
ENDCHAR
STARTCHAR 0057
ENCODING 87
SWIDTH 633 0
DWIDTH 19 0
BBX 17 19 1 0
BITMAP
808080
808080
808080
808080
808080
808080
808080
808080
808080
808080
808080
808080
808080
808080
808080
818100
818100
434300
3C3C00
ENDCHAR
STARTCHAR 0058
ENCODING 88
SWIDTH 433 0
DWIDTH 13 0
BBX 12 19 1 0
BITMAP
8010
8010
8010
8010
8010
8030
8020
8060
60C0
1F80
60C0
8020
8020
8010
8010
8010
8010
8010
8010
ENDCHAR
STARTCHAR 0059
ENCODING 89
SWIDTH 400 0
DWIDTH 12 0
BBX 11 19 1 0
BITMAP
8020
8020
8020
8020
8020
8020
8020
8020
8040
F080
1F00
0C00
0400
0400
0400
0400
0400
0400
0400
ENDCHAR
STARTCHAR 005A
ENCODING 90
SWIDTH 433 0
DWIDTH 13 0
BBX 11 19 1 0
BITMAP
FFE0
0020
0020
0040
0040
0040
00C0
0080
0100
1E00
2000
4000
4000
8000
8000
8000
8000
8000
FFE0
ENDCHAR
STARTCHAR 005B
ENCODING 91
SWIDTH 166 0
DWIDTH 5 0
BBX 3 23 1 -2
BITMAP
E0
80
80
80
80
80
80
80
80
80
80
80
80
80
80
80
80
80
80
80
80
80
E0
ENDCHAR
STARTCHAR 005C
ENCODING 92
SWIDTH 466 0
DWIDTH 14 0
BBX 12 19 1 0
BITMAP
8000
4000
4000
2000
2000
1000
1800
0800
0400
0400
0200
0300
0100
0080
0080
0040
0060
0020
0010
ENDCHAR
STARTCHAR 005D
ENCODING 93
SWIDTH 166 0
DWIDTH 5 0
BBX 3 23 1 -2
BITMAP
E0
20
20
20
20
20
20
20
20
20
20
20
20
20
20
20
20
20
20
20
20
20
E0
ENDCHAR
STARTCHAR 005E
ENCODING 94
SWIDTH 233 0
DWIDTH 7 0
BBX 5 3 1 15
BITMAP
60
50
88
ENDCHAR
STARTCHAR 005F
ENCODING 95
SWIDTH 466 0
DWIDTH 14 0
BBX 13 1 0 -6
BITMAP
FFF8
ENDCHAR
STARTCHAR 0060
ENCODING 96
SWIDTH 133 0
DWIDTH 4 0
BBX 2 2 1 17
BITMAP
80
40
ENDCHAR
STARTCHAR 0061
ENCODING 97
SWIDTH 366 0
DWIDTH 11 0
BBX 9 14 1 0
BITMAP
3E00
4100
8100
0180
0180
3F80
6080
8080
8080
8080
8100
8100
8200
7C00
ENDCHAR
STARTCHAR 0062
ENCODING 98
SWIDTH 366 0
DWIDTH 11 0
BBX 10 19 1 0
BITMAP
8000
8000
8000
8000
8000
9E00
E300
8080
8080
8040
8040
8040
8040
8040
8080
8080
8080
6300
3E00
ENDCHAR
STARTCHAR 0063
ENCODING 99
SWIDTH 366 0
DWIDTH 11 0
BBX 9 14 1 0
BITMAP
3C00
6300
8100
8080
8080
8000
8000
8000
8000
8080
8080
8180
6300
3E00
ENDCHAR
STARTCHAR 0064
ENCODING 100
SWIDTH 366 0
DWIDTH 11 0
BBX 10 19 1 0
BITMAP
0040
0040
0040
0040
0040
3E40
6340
80C0
80C0
8040
8040
8040
8040
8040
8080
8080
8080
6300
3E00
ENDCHAR
STARTCHAR 0065
ENCODING 101
SWIDTH 366 0
DWIDTH 11 0
BBX 10 14 1 0
BITMAP
3E00
6300
8180
8080
8080
80C0
BFC0
C000
8000
8040
8080
8080
4300
3E00
ENDCHAR
STARTCHAR 0066
ENCODING 102
SWIDTH 333 0
DWIDTH 10 0
BBX 9 19 1 0
BITMAP
3E00
6300
8080
8080
8080
8000
8000
8000
BE00
E000
8000
8000
8000
8000
8000
8000
8000
8000
8000
ENDCHAR
STARTCHAR 0067
ENCODING 103
SWIDTH 366 0
DWIDTH 11 0
BBX 10 20 1 -6
BITMAP
3E00
6300
8080
8080
8040
8040
8040
8040
8040
80C0
80C0
80C0
6340
3E40
0040
80C0
8080
C080
6300
3E00
ENDCHAR
STARTCHAR 0068
ENCODING 104
SWIDTH 366 0
DWIDTH 11 0
BBX 10 19 1 0
BITMAP
8000
8000
8000
8000
8000
BE00
E300
8080
8080
8040
8040
8040
8040
8040
8040
8040
8040
8040
8040
ENDCHAR
STARTCHAR 0069
ENCODING 105
SWIDTH 66 0
DWIDTH 2 0
BBX 1 16 1 0
BITMAP
80
00
80
80
80
80
80
80
80
80
80
80
80
80
80
80
ENDCHAR
STARTCHAR 006A
ENCODING 106
SWIDTH 133 0
DWIDTH 4 0
BBX 5 22 -2 -6
BITMAP
08
00
08
08
08
08
08
08
08
08
08
08
08
08
08
08
08
08
08
10
30
C0
ENDCHAR
STARTCHAR 006B
ENCODING 107
SWIDTH 366 0
DWIDTH 11 0
BBX 10 19 1 0
BITMAP
8000
8000
8000
8000
8000
8040
8040
8080
8080
8080
8300
BE00
E300
8080
8080
8040
8040
8040
8040
ENDCHAR
STARTCHAR 006C
ENCODING 108
SWIDTH 66 0
DWIDTH 2 0
BBX 1 19 1 0
BITMAP
80
80
80
80
80
80
80
80
80
80
80
80
80
80
80
80
80
80
80
ENDCHAR
STARTCHAR 006D
ENCODING 109
SWIDTH 633 0
DWIDTH 19 0
BBX 17 14 1 0
BITMAP
3C1C00
426300
818100
818100
808080
808080
808080
808080
808080
808080
808080
808080
808080
808080
ENDCHAR
STARTCHAR 006E
ENCODING 110
SWIDTH 366 0
DWIDTH 11 0
BBX 9 14 1 0
BITMAP
3C00
4200
8100
8100
8080
8080
8080
8080
8080
8080
8080
8080
8080
8080
ENDCHAR
STARTCHAR 006F
ENCODING 111
SWIDTH 366 0
DWIDTH 11 0
BBX 10 14 1 0
BITMAP
3E00
6300
8080
8080
8040
8040
8040
8040
8040
8080
8080
8080
6300
3E00
ENDCHAR
STARTCHAR 0070
ENCODING 112
SWIDTH 366 0
DWIDTH 11 0
BBX 10 20 1 -6
BITMAP
3E00
6300
8080
8080
8040
8040
8040
8040
8040
8080
8080
8080
E300
BE00
8000
8000
8000
8000
8000
8000
ENDCHAR
STARTCHAR 0071
ENCODING 113
SWIDTH 366 0
DWIDTH 11 0
BBX 10 20 1 -6
BITMAP
3E00
6300
8080
8080
8040
8040
8040
8040
8040
80C0
80C0
80C0
6340
1E40
0040
0040
0040
0040
0040
0040
ENDCHAR
STARTCHAR 0072
ENCODING 114
SWIDTH 300 0
DWIDTH 9 0
BBX 8 14 1 0
BITMAP
3C
62
81
80
80
80
80
80
80
80
80
80
80
80
ENDCHAR
STARTCHAR 0073
ENCODING 115
SWIDTH 333 0
DWIDTH 10 0
BBX 8 14 1 0
BITMAP
7C
82
82
80
80
80
7C
02
02
01
01
83
82
7C
ENDCHAR
STARTCHAR 0074
ENCODING 116
SWIDTH 266 0
DWIDTH 8 0
BBX 7 18 1 0
BITMAP
80
80
80
80
BE
E0
80
80
80
80
80
80
80
80
80
80
80
80
ENDCHAR
STARTCHAR 0075
ENCODING 117
SWIDTH 366 0
DWIDTH 11 0
BBX 9 14 1 0
BITMAP
8080
8080
8080
8080
8080
8080
8080
8080
8080
8080
8100
8100
4200
3C00
ENDCHAR
STARTCHAR 0076
ENCODING 118
SWIDTH 400 0
DWIDTH 12 0
BBX 10 14 1 1
BITMAP
8040
8040
8040
8080
4080
4080
4080
4100
2100
2100
2100
2300
1200
1C00
ENDCHAR
STARTCHAR 0077
ENCODING 119
SWIDTH 633 0
DWIDTH 19 0
BBX 17 14 1 0
BITMAP
808080
808080
808080
808080
808080
808080
808080
808080
808080
808080
818100
818100
434200
3C3C00
ENDCHAR
STARTCHAR 0078
ENCODING 120
SWIDTH 366 0
DWIDTH 11 0
BBX 9 14 1 0
BITMAP
8080
8080
8080
8100
8100
8100
6200
3E00
4300
8100
8100
8080
8080
8080
ENDCHAR
STARTCHAR 0079
ENCODING 121
SWIDTH 366 0
DWIDTH 11 0
BBX 10 20 1 -6
BITMAP
8040
8040
8040
8040
8040
8040
8040
8040
8040
80C0
80C0
80C0
6340
3E40
0040
8080
8080
8080
6300
3E00
ENDCHAR
STARTCHAR 007A
ENCODING 122
SWIDTH 366 0
DWIDTH 11 0
BBX 9 14 1 0
BITMAP
FF80
0080
0080
0100
0100
0100
0200
3C00
4000
8000
8000
8000
8000
FF80
ENDCHAR
STARTCHAR 007B
ENCODING 123
SWIDTH 333 0
DWIDTH 10 0
BBX 8 23 1 -2
BITMAP
03
04
08
08
08
08
08
08
10
10
20
C0
20
10
10
08
08
08
08
08
08
04
03
ENDCHAR
STARTCHAR 007C
ENCODING 124
SWIDTH 200 0
DWIDTH 6 0
BBX 5 23 1 -2
BITMAP
98
60
60
20
20
20
20
20
20
20
20
20
20
20
20
20
20
20
20
20
60
60
98
ENDCHAR
STARTCHAR 007D
ENCODING 125
SWIDTH 333 0
DWIDTH 10 0
BBX 8 23 1 -2
BITMAP
C0
60
10
10
10
10
10
10
08
08
04
03
04
08
08
10
10
10
10
10
10
20
C0
ENDCHAR
STARTCHAR 007E
ENCODING 126
SWIDTH 533 0
DWIDTH 16 0
BBX 14 3 1 12
BITMAP
3C04
C308
80F0
ENDCHAR
STARTCHAR 00A0
ENCODING 160
SWIDTH 366 0
DWIDTH 11 0
BBX 0 0 0 0
BITMAP
ENDCHAR
STARTCHAR 00A1
ENCODING 161
SWIDTH 66 0
DWIDTH 2 0
BBX 1 19 1 -3
BITMAP
80
00
00
00
80
80
80
80
80
80
80
80
80
80
80
80
80
80
80
ENDCHAR
STARTCHAR 00A2
ENCODING 162
SWIDTH 366 0
DWIDTH 11 0
BBX 9 20 1 -3
BITMAP
7F00
2400
2400
3C00
7600
9500
9500
9400
9400
9400
9400
9400
9480
9500
9500
5600
3C00
3400
2400
7F00
ENDCHAR
STARTCHAR 00A3
ENCODING 163
SWIDTH 400 0
DWIDTH 12 0
BBX 12 19 -1 0
BITMAP
07F0
1800
1000
2000
2000
2000
2000
2300
AC80
7000
2000
2000
2000
2000
2000
2000
2000
2000
3FF0
ENDCHAR
STARTCHAR 00A4
ENCODING 164
SWIDTH 400 0
DWIDTH 12 0
BBX 11 11 1 8
BITMAP
7380
8C40
8C40
9240
A1C0
4180
A340
9640
8C60
8C40
7380
ENDCHAR
STARTCHAR 00A5
ENCODING 165
SWIDTH 400 0
DWIDTH 12 0
BBX 11 19 1 0
BITMAP
8020
8020
8020
8020
8020
8020
8040
80C0
7700
0C00
FFE0
0400
0400
3F80
0400
0400
0400
0400
0400
ENDCHAR
STARTCHAR 00A6
ENCODING 166
SWIDTH 200 0
DWIDTH 6 0
BBX 5 19 1 0
BITMAP
98
60
20
20
20
20
60
98
00
00
98
60
60
20
20
20
60
60
98
ENDCHAR
STARTCHAR 00A7
ENCODING 167
SWIDTH 333 0
DWIDTH 10 0
BBX 8 21 1 -3
BITMAP
7C
82
82
80
80
80
80
7C
82
82
81
82
82
7E
02
02
01
01
83
82
7C
ENDCHAR
STARTCHAR 00A8
ENCODING 168
SWIDTH 233 0
DWIDTH 7 0
BBX 5 2 1 20
BITMAP
88
88
ENDCHAR
STARTCHAR 00A9
ENCODING 169
SWIDTH 466 0
DWIDTH 14 0
BBX 14 18 -1 1
BITMAP
0FC0
3020
4798
8848
9064
9024
9024
9004
9004
9004
9004
9004
9004
9024
8844
4788
6018
1FE0
ENDCHAR
STARTCHAR 00AA
ENCODING 170
SWIDTH 366 0
DWIDTH 11 0
BBX 8 10 1 9
BITMAP
3E
C1
01
01
3F
41
81
81
82
7C
ENDCHAR
STARTCHAR 00AC
ENCODING 172
SWIDTH 433 0
DWIDTH 13 0
BBX 11 3 1 6
BITMAP
FFC0
0060
0020
ENDCHAR
STARTCHAR 00AD
ENCODING 173
SWIDTH 400 0
DWIDTH 12 0
BBX 10 1 1 8
BITMAP
FFC0
ENDCHAR
STARTCHAR 00AE
ENCODING 174
SWIDTH 466 0
DWIDTH 14 0
BBX 14 18 -1 1
BITMAP
3FE0
6018
5FC8
9024
9014
9014
9014
9024
97C4
9844
9024
9024
9024
9024
9024
5028
6018
1FE0
ENDCHAR
STARTCHAR 00B1
ENCODING 177
SWIDTH 466 0
DWIDTH 14 0
BBX 13 14 1 2
BITMAP
1980
0600
0600
0200
8218
8210
7FF0
8210
8218
0200
0600
0600
7FE0
8010
ENDCHAR
STARTCHAR 00B2
ENCODING 178
SWIDTH 266 0
DWIDTH 8 0
BBX 6 11 1 8
BITMAP
38
CC
84
04
0C
38
40
80
80
80
FC
ENDCHAR
STARTCHAR 00B3
ENCODING 179
SWIDTH 266 0
DWIDTH 8 0
BBX 6 11 1 8
BITMAP
F0
08
04
04
08
38
08
04
04
88
70
ENDCHAR
STARTCHAR 00B4
ENCODING 180
SWIDTH 133 0
DWIDTH 4 0
BBX 2 2 1 18
BITMAP
C0
80
ENDCHAR
STARTCHAR 00B5
ENCODING 181
SWIDTH 366 0
DWIDTH 11 0
BBX 9 20 1 -6
BITMAP
8080
8080
8080
8080
8080
8080
8080
8080
8080
8080
8100
8100
C300
BD80
8000
8000
8000
8000
8000
8000
ENDCHAR
STARTCHAR 00B6
ENCODING 182
SWIDTH 333 0
DWIDTH 10 0
BBX 8 21 1 -2
BITMAP
3F
7D
FD
FD
FD
FD
FD
FD
7D
3D
05
05
05
05
05
05
05
05
05
05
05
ENDCHAR
STARTCHAR 00B8
ENCODING 184
SWIDTH 300 0
DWIDTH 9 0
BBX 3 6 5 -5
BITMAP
40
40
40
20
A0
C0
ENDCHAR
STARTCHAR 00B9
ENCODING 185
SWIDTH 100 0
DWIDTH 3 0
BBX 1 12 1 8
BITMAP
80
80
80
80
80
80
80
80
80
80
80
80
ENDCHAR
STARTCHAR 00BA
ENCODING 186
SWIDTH 166 0
DWIDTH 5 0
BBX 3 4 1 15
BITMAP
E0
A0
A0
E0
ENDCHAR
STARTCHAR 00BC
ENCODING 188
SWIDTH 566 0
DWIDTH 17 0
BBX 15 19 1 1
BITMAP
8100
8100
8200
8200
8200
8600
8400
8420
8440
8840
8840
0880
0890
1190
11F2
111C
3010
2010
2010
ENDCHAR
STARTCHAR 00BD
ENCODING 189
SWIDTH 533 0
DWIDTH 16 0
BBX 14 20 1 0
BITMAP
8000
8300
8200
8200
8200
8600
8400
8400
8438
88CC
8884
8804
1804
100C
1038
1040
3080
2080
2080
20FC
ENDCHAR
STARTCHAR 00BE
ENCODING 190
SWIDTH 666 0
DWIDTH 20 0
BBX 18 19 1 1
BITMAP
F83000
042000
022000
022000
044000
384000
044000
02C400
028400
848400
788800
018800
011900
011100
011D00
0233C0
020100
020100
060100
ENDCHAR
STARTCHAR 00BF
ENCODING 191
SWIDTH 433 0
DWIDTH 13 0
BBX 11 19 1 -3
BITMAP
0100
0000
0000
0000
0100
0100
0100
0300
0200
3C00
6000
8000
8000
8000
8020
8060
8040
60C0
3F00
ENDCHAR
STARTCHAR 00C0
ENCODING 192
SWIDTH 433 0
DWIDTH 13 0
BBX 11 24 1 0
BITMAP
0800
0400
0400
0000
0000
3F00
4080
8040
8040
8020
8020
8020
8020
BF20
E0A0
8060
8060
8020
8020
8020
8020
8020
8020
8020
ENDCHAR
STARTCHAR 00C1
ENCODING 193
SWIDTH 433 0
DWIDTH 13 0
BBX 11 24 1 0
BITMAP
0400
0C00
0800
0000
0000
3F00
4080
8040
8040
8020
8020
8020
8020
BF20
E0A0
8060
8060
8020
8020
8020
8020
8020
8020
8020
ENDCHAR
STARTCHAR 00C2
ENCODING 194
SWIDTH 433 0
DWIDTH 13 0
BBX 11 24 1 0
BITMAP
0C00
0A00
1200
0000
0000
3F00
4080
8040
8040
8020
8020
8020
8020
BF20
E0A0
8060
8060
8020
8020
8020
8020
8020
8020
8020
ENDCHAR
STARTCHAR 00C3
ENCODING 195
SWIDTH 433 0
DWIDTH 13 0
BBX 11 23 1 0
BITMAP
4700
3880
0000
0000
3F00
4080
8040
8040
8020
8020
8020
8020
BF20
E0A0
8060
8060
8020
8020
8020
8020
8020
8020
8020
ENDCHAR
STARTCHAR 00C4
ENCODING 196
SWIDTH 433 0
DWIDTH 13 0
BBX 11 23 1 0
BITMAP
1300
0000
0000
0000
3F00
6080
8040
8040
8020
8020
8020
8020
BF20
E0A0
C060
8060
8020
8020
8020
8020
8020
8020
8020
ENDCHAR
STARTCHAR 00C5
ENCODING 197
SWIDTH 433 0
DWIDTH 13 0
BBX 11 24 1 0
BITMAP
0E00
0A00
0A00
0E00
0000
3F00
4080
8040
8040
8020
8020
8020
8020
BF20
E0A0
8060
8060
8020
8020
8020
8020
8020
8020
8020
ENDCHAR
STARTCHAR 00C6
ENCODING 198
SWIDTH 700 0
DWIDTH 21 0
BBX 20 19 1 0
BITMAP
3F0FF0
40D800
806000
806000
802000
802000
802000
802000
BF2F80
E0B800
806000
806000
802000
802000
802000
802000
802000
802000
803FF0
ENDCHAR
STARTCHAR 00C7
ENCODING 199
SWIDTH 433 0
DWIDTH 13 0
BBX 11 24 1 -5
BITMAP
3F00
60C0
8040
8020
8020
8000
8000
8000
8000
8000
8000
8000
8000
8000
8020
8060
8040
4080
3F00
0400
0600
0200
0200
0E00
ENDCHAR
STARTCHAR 00C8
ENCODING 200
SWIDTH 366 0
DWIDTH 11 0
BBX 10 24 1 0
BITMAP
1800
0800
0800
0000
0000
3FC0
6000
8000
8000
8000
8000
8000
8000
BE00
E000
8000
8000
8000
8000
8000
8000
8000
8000
FFC0
ENDCHAR
STARTCHAR 00C9
ENCODING 201
SWIDTH 366 0
DWIDTH 11 0
BBX 10 24 1 0
BITMAP
0800
0800
1000
0000
0000
3FC0
6000
8000
8000
8000
8000
8000
8000
BE00
E000
8000
8000
8000
8000
8000
8000
8000
8000
FFC0
ENDCHAR
STARTCHAR 00CA
ENCODING 202
SWIDTH 366 0
DWIDTH 11 0
BBX 10 24 1 0
BITMAP
1800
1400
2600
0000
0000
3FC0
6000
8000
8000
8000
8000
8000
8000
BE00
E000
8000
8000
8000
8000
8000
8000
8000
8000
FFC0
ENDCHAR
STARTCHAR 00CB
ENCODING 203
SWIDTH 366 0
DWIDTH 11 0
BBX 9 23 1 0
BITMAP
1200
0000
0000
0000
3F80
4000
8000
8000
8000
8000
8000
8000
BE00
E000
8000
8000
8000
8000
8000
8000
8000
8000
FF80
ENDCHAR
STARTCHAR 00CC
ENCODING 204
SWIDTH 133 0
DWIDTH 4 0
BBX 3 24 0 0
BITMAP
C0
40
60
00
00
E0
40
40
40
40
40
40
40
40
40
40
40
40
40
40
40
40
40
E0
ENDCHAR
STARTCHAR 00CD
ENCODING 205
SWIDTH 133 0
DWIDTH 4 0
BBX 3 24 0 0
BITMAP
60
40
C0
00
00
E0
40
40
40
40
40
40
40
40
40
40
40
40
40
40
40
40
40
E0
ENDCHAR
STARTCHAR 00CE
ENCODING 206
SWIDTH 200 0
DWIDTH 6 0
BBX 5 24 0 0
BITMAP
60
50
98
00
00
70
20
20
20
20
20
20
20
20
20
20
20
20
20
20
20
20
20
70
ENDCHAR
STARTCHAR 00CF
ENCODING 207
SWIDTH 200 0
DWIDTH 6 0
BBX 5 23 0 0
BITMAP
88
00
00
00
70
20
20
20
20
20
20
20
20
20
20
20
20
20
20
20
20
20
70
ENDCHAR
STARTCHAR 00D0
ENCODING 208
SWIDTH 466 0
DWIDTH 14 0
BBX 14 19 -1 0
BITMAP
3FE0
2018
2008
2004
2004
2004
A004
A004
7F04
2084
2004
2004
2004
2004
2004
2004
2008
2018
3FE0
ENDCHAR
STARTCHAR 00D1
ENCODING 209
SWIDTH 433 0
DWIDTH 13 0
BBX 11 23 1 0
BITMAP
4700
3880
0000
0000
8020
C020
C020
E020
A020
9020
9020
8820
8820
8420
8420
8220
8220
8120
8120
80A0
80A0
8060
8060
ENDCHAR
STARTCHAR 00D2
ENCODING 210
SWIDTH 433 0
DWIDTH 13 0
BBX 11 24 1 0
BITMAP
0800
0400
0400
0000
0000
3F00
4080
8040
8040
8020
8020
8020
8020
8020
8020
8020
8020
8020
8020
8020
8040
8040
4080
3F00
ENDCHAR
STARTCHAR 00D3
ENCODING 211
SWIDTH 433 0
DWIDTH 13 0
BBX 11 24 1 0
BITMAP
0400
0C00
0800
0000
0000
3F00
4080
8040
8040
8020
8020
8020
8020
8020
8020
8020
8020
8020
8020
8020
8040
8040
4080
3F00
ENDCHAR
STARTCHAR 00D4
ENCODING 212
SWIDTH 433 0
DWIDTH 13 0
BBX 11 24 1 0
BITMAP
0C00
1E00
1200
0000
0000
3F00
4080
8040
8040
8020
8020
8020
8020
8020
8020
8020
8020
8020
8020
8020
8040
8040
4080
3F00
ENDCHAR
STARTCHAR 00D5
ENCODING 213
SWIDTH 433 0
DWIDTH 13 0
BBX 11 23 1 0
BITMAP
4700
3880
0000
0000
3F00
4080
8040
8040
8020
8020
8020
8020
8020
8020
8020
8020
8020
8020
8020
8040
8040
4080
3F00
ENDCHAR
STARTCHAR 00D6
ENCODING 214
SWIDTH 433 0
DWIDTH 13 0
BBX 11 23 1 0
BITMAP
1100
0000
0000
0000
3F00
4080
8040
8040
8020
8020
8020
8020
8020
8020
8020
8020
8020
8020
8020
8040
8040
4080
3F00
ENDCHAR
STARTCHAR 00D8
ENCODING 216
SWIDTH 433 0
DWIDTH 13 0
BBX 12 19 0 1
BITMAP
1F90
3070
6020
4050
4050
4090
4190
4110
4210
4210
4410
4C10
4810
5010
5010
6010
6020
7060
9F80
ENDCHAR
STARTCHAR 00D9
ENCODING 217
SWIDTH 433 0
DWIDTH 13 0
BBX 11 24 1 0
BITMAP
0800
0400
0400
0000
0000
8020
8020
8020
8020
8020
8020
8020
8020
8020
8020
8020
8020
8020
8020
8020
8040
8040
4080
3F00
ENDCHAR
STARTCHAR 00DA
ENCODING 218
SWIDTH 433 0
DWIDTH 13 0
BBX 11 24 1 0
BITMAP
0400
0C00
0800
0000
0000
8020
8020
8020
8020
8020
8020
8020
8020
8020
8020
8020
8020
8020
8020
8020
8040
8040
4080
3F00
ENDCHAR
STARTCHAR 00DB
ENCODING 219
SWIDTH 433 0
DWIDTH 13 0
BBX 11 24 1 0
BITMAP
0C00
1E00
1200
0000
0000
8020
8020
8020
8020
8020
8020
8020
8020
8020
8020
8020
8020
8020
8020
8020
8040
8040
4080
3F00
ENDCHAR
STARTCHAR 00DC
ENCODING 220
SWIDTH 433 0
DWIDTH 13 0
BBX 11 23 1 0
BITMAP
1100
0000
0000
0000
8020
8020
8020
8020
8020
8020
8020
8020
8020
8020
8020
8020
8020
8020
8020
8040
8040
4080
3F00
ENDCHAR
STARTCHAR 00DD
ENCODING 221
SWIDTH 400 0
DWIDTH 12 0
BBX 11 24 1 0
BITMAP
0400
0800
0800
0000
0000
8020
8020
8020
8020
8020
8020
8020
8020
8040
F080
1F00
0C00
0400
0400
0400
0400
0400
0400
0400
ENDCHAR
STARTCHAR 00DE
ENCODING 222
SWIDTH 366 0
DWIDTH 11 0
BBX 10 19 1 0
BITMAP
8000
8000
8000
FE00
8300
8080
8080
8040
8040
8040
8040
8040
8080
8080
8100
FE00
8000
8000
8000
ENDCHAR
STARTCHAR 00DF
ENCODING 223
SWIDTH 400 0
DWIDTH 12 0
BBX 11 21 1 -2
BITMAP
3E00
6100
8080
8080
8080
8080
8080
8100
8E00
8100
8080
8040
8040
8020
8020
8020
8040
8040
8040
0180
3F00
ENDCHAR
STARTCHAR 00E0
ENCODING 224
SWIDTH 366 0
DWIDTH 11 0
BBX 9 17 1 0
BITMAP
1800
0800
0000
3E00
4100
8100
0180
0180
3F80
6080
8080
8080
8080
8100
8100
8200
7C00
ENDCHAR
STARTCHAR 00E1
ENCODING 225
SWIDTH 366 0
DWIDTH 11 0
BBX 9 17 1 0
BITMAP
0800
1000
0000
3E00
4100
8100
0180
0180
3F80
6080
8080
8080
8080
8100
8100
8200
7C00
ENDCHAR
STARTCHAR 00E2
ENCODING 226
SWIDTH 366 0
DWIDTH 11 0
BBX 9 18 1 0
BITMAP
1800
1400
2600
0000
3E00
4100
8100
0180
0180
3F80
6080
8080
8080
8080
8100
8100
8200
7C00
ENDCHAR
STARTCHAR 00E3
ENCODING 227
SWIDTH 366 0
DWIDTH 11 0
BBX 9 17 1 0
BITMAP
0E00
7900
0000
3E00
4100
8100
0180
0180
3F80
6080
8080
8080
8080
8100
8100
8200
7C00
ENDCHAR
STARTCHAR 00E4
ENCODING 228
SWIDTH 366 0
DWIDTH 11 0
BBX 9 17 1 0
BITMAP
2200
0000
0000
3E00
4100
8100
0180
0180
3F80
6080
8080
8080
8080
8100
8100
8200
7C00
ENDCHAR
STARTCHAR 00E5
ENCODING 229
SWIDTH 366 0
DWIDTH 11 0
BBX 9 18 1 0
BITMAP
1C00
1400
1400
1C00
3E00
4100
8100
0180
0180
3F80
6080
8080
8080
8080
8100
8100
8200
7C00
ENDCHAR
STARTCHAR 00E6
ENCODING 230
SWIDTH 633 0
DWIDTH 19 0
BBX 18 14 1 0
BITMAP
3E1E00
416300
818180
018080
018080
3F8040
60BFC0
80C000
808000
808040
818080
818080
824300
7C3E00
ENDCHAR
STARTCHAR 00E7
ENCODING 231
SWIDTH 366 0
DWIDTH 11 0
BBX 9 19 1 -5
BITMAP
3C00
6300
8100
8080
8080
8000
8000
8000
8000
8080
8080
8180
6300
3E00
0800
0C00
0400
0400
1C00
ENDCHAR
STARTCHAR 00E8
ENCODING 232
SWIDTH 366 0
DWIDTH 11 0
BBX 10 17 1 0
BITMAP
0800
0C00
0000
3E00
6300
8180
8080
8080
80C0
BFC0
C000
8000
8040
8080
8080
4300
3E00
ENDCHAR
STARTCHAR 00E9
ENCODING 233
SWIDTH 366 0
DWIDTH 11 0
BBX 10 17 1 0
BITMAP
0C00
0800
0000
3E00
6300
8180
8080
8080
80C0
BFC0
C000
8000
8040
8080
8080
4300
3E00
ENDCHAR
STARTCHAR 00EA
ENCODING 234
SWIDTH 366 0
DWIDTH 11 0
BBX 10 18 1 0
BITMAP
0C00
1400
3600
0000
3E00
6300
8180
8080
8080
80C0
BFC0
C000
8000
8040
8080
8080
4300
3E00
ENDCHAR
STARTCHAR 00EB
ENCODING 235
SWIDTH 366 0
DWIDTH 11 0
BBX 10 17 1 0
BITMAP
1200
0000
0000
3E00
6300
8180
8080
8080
80C0
BFC0
C000
8000
8040
8080
8080
4300
3E00
ENDCHAR
STARTCHAR 00EC
ENCODING 236
SWIDTH 66 0
DWIDTH 2 0
BBX 2 17 0 0
BITMAP
80
40
00
40
40
40
40
40
40
40
40
40
40
40
40
40
40
ENDCHAR
STARTCHAR 00ED
ENCODING 237
SWIDTH 66 0
DWIDTH 2 0
BBX 2 17 0 0
BITMAP
40
80
00
40
40
40
40
40
40
40
40
40
40
40
40
40
40
ENDCHAR
STARTCHAR 00EE
ENCODING 238
SWIDTH 66 0
DWIDTH 2 0
BBX 4 18 -1 0
BITMAP
60
50
90
00
20
20
20
20
20
20
20
20
20
20
20
20
20
20
ENDCHAR
STARTCHAR 00EF
ENCODING 239
SWIDTH 66 0
DWIDTH 2 0
BBX 4 17 0 0
BITMAP
90
00
00
40
40
40
40
40
40
40
40
40
40
40
40
40
40
ENDCHAR
STARTCHAR 00F1
ENCODING 241
SWIDTH 366 0
DWIDTH 11 0
BBX 9 17 1 0
BITMAP
0E00
7900
0000
3C00
4200
8100
8100
8080
8080
8080
8080
8080
8080
8080
8080
8080
8080
ENDCHAR
STARTCHAR 00F2
ENCODING 242
SWIDTH 366 0
DWIDTH 11 0
BBX 10 17 1 0
BITMAP
0800
0C00
0000
3E00
6300
8080
8080
8040
8040
8040
8040
8040
8080
8080
8080
6300
3E00
ENDCHAR
STARTCHAR 00F3
ENCODING 243
SWIDTH 366 0
DWIDTH 11 0
BBX 10 17 1 0
BITMAP
0C00
0800
0000
3E00
6300
8080
8080
8040
8040
8040
8040
8040
8080
8080
8080
6300
3E00
ENDCHAR
STARTCHAR 00F4
ENCODING 244
SWIDTH 366 0
DWIDTH 11 0
BBX 10 18 1 0
BITMAP
0C00
1400
3600
0000
3E00
6300
8080
8080
8040
8040
8040
8040
8040
8080
8080
8080
6300
3E00
ENDCHAR
STARTCHAR 00F5
ENCODING 245
SWIDTH 366 0
DWIDTH 11 0
BBX 10 17 1 0
BITMAP
4700
7900
0000
3E00
6300
8080
8080
8040
8040
8040
8040
8040
8080
8080
8080
6300
3E00
ENDCHAR
STARTCHAR 00F6
ENCODING 246
SWIDTH 366 0
DWIDTH 11 0
BBX 10 17 1 0
BITMAP
1200
0000
0000
3E00
6300
8080
8080
8040
8040
8040
8040
8040
8080
8080
8080
6300
3E00
ENDCHAR
STARTCHAR 00F8
ENCODING 248
SWIDTH 366 0
DWIDTH 11 0
BBX 10 14 1 1
BITMAP
3C80
6300
8100
8280
8680
8440
8840
8840
9040
B040
A080
C080
4300
BE00
ENDCHAR
STARTCHAR 00F9
ENCODING 249
SWIDTH 366 0
DWIDTH 11 0
BBX 9 17 1 0
BITMAP
1800
0800
0000
8080
8080
8080
8080
8080
8080
8080
8080
8080
8080
8100
8100
4200
3C00
ENDCHAR
STARTCHAR 00FA
ENCODING 250
SWIDTH 366 0
DWIDTH 11 0
BBX 9 17 1 0
BITMAP
0800
1800
0000
8080
8080
8080
8080
8080
8080
8080
8080
8080
8080
8100
8100
4200
3C00
ENDCHAR
STARTCHAR 00FB
ENCODING 251
SWIDTH 366 0
DWIDTH 11 0
BBX 9 18 1 0
BITMAP
1800
1400
2600
0000
8080
8080
8080
8080
8080
8080
8080
8080
8080
8080
8100
8100
4200
3C00
ENDCHAR
STARTCHAR 00FC
ENCODING 252
SWIDTH 366 0
DWIDTH 11 0
BBX 9 17 1 0
BITMAP
2200
0000
0000
8080
8080
8080
8080
8080
8080
8080
8080
8080
8080
8100
8100
4200
3C00
ENDCHAR
STARTCHAR 00FD
ENCODING 253
SWIDTH 366 0
DWIDTH 11 0
BBX 10 23 1 -6
BITMAP
0C00
0800
0000
8040
8040
8040
8040
8040
8040
8040
8040
8040
80C0
80C0
80C0
6340
3E40
0040
8080
8080
8080
6300
3E00
ENDCHAR
STARTCHAR 00FE
ENCODING 254
SWIDTH 366 0
DWIDTH 11 0
BBX 10 19 1 -3
BITMAP
8000
8000
8000
BE00
E300
8080
8080
8040
8040
8040
8040
8040
8080
8080
E100
BE00
8000
8000
8000
ENDCHAR
STARTCHAR 00FF
ENCODING 255
SWIDTH 366 0
DWIDTH 11 0
BBX 10 23 1 -6
BITMAP
1200
0000
0000
8040
8040
8040
8040
8040
8040
8040
8040
8040
80C0
80C0
80C0
6340
3E40
0040
8080
8080
8080
6300
3E00
ENDCHAR
STARTCHAR 0152
ENCODING 338
SWIDTH 700 0
DWIDTH 21 0
BBX 20 19 1 0
BITMAP
3F0FF0
40D800
806000
806000
802000
802000
802000
802000
802F80
803800
802000
802000
802000
802000
802000
806000
806000
40A000
3F3FF0
ENDCHAR
STARTCHAR 0153
ENCODING 339
SWIDTH 666 0
DWIDTH 20 0
BBX 18 14 1 0
BITMAP
3C1E00
633100
814080
80C080
804080
804040
805FC0
806000
804000
80C040
80C080
814080
636100
3C1E00
ENDCHAR
STARTCHAR 0160
ENCODING 352
SWIDTH 433 0
DWIDTH 13 0
BBX 11 24 1 0
BITMAP
1200
0E00
0C00
0000
0000
3F00
4080
8040
8040
8000
8000
8000
4000
3F00
0080
0040
0040
0020
0020
8040
8040
8040
4080
3F00
ENDCHAR
STARTCHAR 0161
ENCODING 353
SWIDTH 333 0
DWIDTH 10 0
BBX 8 18 1 0
BITMAP
2C
28
10
00
7C
82
82
80
80
80
7C
02
02
01
01
83
82
7C
ENDCHAR
STARTCHAR 0178
ENCODING 376
SWIDTH 400 0
DWIDTH 12 0
BBX 11 19 1 0
BITMAP
8020
8020
8020
8020
8020
8020
8020
8020
8040
F080
1F00
0C00
0400
0400
0400
0400
0400
0400
0400
ENDCHAR
STARTCHAR 02C6
ENCODING 710
SWIDTH 333 0
DWIDTH 10 0
BBX 4 3 4 17
BITMAP
60
70
90
ENDCHAR
STARTCHAR 02DC
ENCODING 732
SWIDTH 333 0
DWIDTH 10 0
BBX 7 2 1 18
BITMAP
9E
70
ENDCHAR
STARTCHAR 03BC
ENCODING 956
SWIDTH 366 0
DWIDTH 11 0
BBX 9 20 1 -6
BITMAP
8080
8080
8080
8080
8080
8080
8080
8080
8080
8080
8100
8100
C300
BD80
8000
8000
8000
8000
8000
8000
ENDCHAR
STARTCHAR 2010
ENCODING 8208
SWIDTH 466 0
DWIDTH 14 0
BBX 12 5 1 7
BITMAP
8010
8010
7FE0
8010
8010
ENDCHAR
STARTCHAR 2013
ENCODING 8211
SWIDTH 533 0
DWIDTH 16 0
BBX 17 5 -1 7
BITMAP
800080
400080
3FFF00
400080
C00080
ENDCHAR
STARTCHAR 2014
ENCODING 8212
SWIDTH 700 0
DWIDTH 21 0
BBX 22 5 -1 7
BITMAP
800004
400004
3FFFF8
400004
C00004
ENDCHAR
STARTCHAR 2018
ENCODING 8216
SWIDTH 133 0
DWIDTH 4 0
BBX 1 4 1 15
BITMAP
80
80
80
80
ENDCHAR
STARTCHAR 2019
ENCODING 8217
SWIDTH 133 0
DWIDTH 4 0
BBX 2 4 1 15
BITMAP
80
C0
C0
80
ENDCHAR
STARTCHAR 201A
ENCODING 8218
SWIDTH 133 0
DWIDTH 4 0
BBX 2 4 1 -2
BITMAP
80
C0
C0
80
ENDCHAR
STARTCHAR 201C
ENCODING 8220
SWIDTH 200 0
DWIDTH 6 0
BBX 4 4 1 15
BITMAP
90
90
90
90
ENDCHAR
STARTCHAR 201D
ENCODING 8221
SWIDTH 200 0
DWIDTH 6 0
BBX 4 4 1 15
BITMAP
B0
D0
D0
90
ENDCHAR
STARTCHAR 201E
ENCODING 8222
SWIDTH 200 0
DWIDTH 6 0
BBX 5 4 1 -2
BITMAP
98
D8
C8
90
ENDCHAR
STARTCHAR 2020
ENCODING 8224
SWIDTH 200 0
DWIDTH 6 0
BBX 5 19 1 -1
BITMAP
20
60
60
98
60
20
20
20
20
20
20
20
20
20
20
20
20
20
20
ENDCHAR
STARTCHAR 2021
ENCODING 8225
SWIDTH 200 0
DWIDTH 6 0
BBX 5 19 0 -1
BITMAP
20
20
70
88
70
20
20
20
20
20
20
20
20
20
30
D8
58
30
20
ENDCHAR
STARTCHAR 2026
ENCODING 8230
SWIDTH 466 0
DWIDTH 14 0
BBX 13 2 1 0
BITMAP
8208
8208
ENDCHAR
STARTCHAR 2030
ENCODING 8240
SWIDTH 1066 0
DWIDTH 32 0
BBX 31 19 1 0
BITMAP
3E020000
61060000
80840000
808C0000
80480000
80900000
80900000
41A00000
3E600000
004F81F0
0098C318
00A02404
01202404
03201402
02202404
04202404
04202404
0818C318
180F81F0
ENDCHAR
STARTCHAR 2074
ENCODING 8308
SWIDTH 300 0
DWIDTH 9 0
BBX 7 11 1 8
BITMAP
10
20
20
20
48
48
E8
9E
88
08
08
ENDCHAR
STARTCHAR 2122
ENCODING 8482
SWIDTH 633 0
DWIDTH 19 0
BBX 17 8 1 7
BITMAP
FF0000
09EF00
0B1880
0A1080
0A1080
0A1080
0A1080
0A1080
ENDCHAR
STARTCHAR 2212
ENCODING 8722
SWIDTH 400 0
DWIDTH 12 0
BBX 10 1 1 8
BITMAP
FFC0
ENDCHAR
ENDFONT
